<svg viewBox="0 0 26.819 53.229"><path d="M13.423-5.179c-6.629 0-9.938.907-10.468 1.438-.53.53-2.49 2.85-2.844 15.843-.354 12.993.186 30.894.937 37.125.752 6.232 1.054 7.225 1.938 7.844.884.619 3.455 1.625 10.437 1.625 6.983 0 9.554-1.006 10.438-1.625.884-.619 1.186-1.612 1.937-7.844.752-6.231 1.26-24.132.907-37.125C26.35-.89 24.423-3.21 23.892-3.74c-.53-.53-3.84-1.438-10.469-1.438zm0 .719c6.983 0 9.124.786 9.844 1.656.72.87 1.969 5.969 2.531 18.781.793 18.056-8.965 20.875-12.375 20.875S.256 34.033 1.048 15.977C1.611 3.165 2.86-1.934 3.58-2.803c.72-.87 2.86-1.657 9.843-1.657zm0 .781c-5.999 0-8.162.854-8.78 1.594-.62.74-1.736 4.753-2.032 15.906-.188 7.078.483 11.32 2.562 13.969.478.608 1.057 1.118 1.657 1.562 1.939-.57 4.195-.906 6.593-.906 2.411 0 4.648.33 6.594.906a8.452 8.452 0 0 0 1.625-1.562c2.08-2.648 2.75-6.89 2.563-13.969-.296-11.153-1.413-15.166-2.032-15.906-.619-.74-2.75-1.594-8.75-1.594zm0 .594c.342 0 .625 2.03.625 4.531 0 2.502-.283 4.531-.625 4.531-.341 0-.625-2.03-.625-4.53 0-2.503.284-4.532.625-4.532zm0 15.062c2.565 0 8.625.188 9.125.594.5.406.25 11.969-.25 12.563-.5.593-5.912.468-8.875.468-2.962 0-8.375.125-8.875-.468-.5-.594-.75-12.157-.25-12.563.5-.406 6.561-.594 9.125-.594zm-.062 16.72c-2.497 0-5.359.356-5.344.843.022.73 2.98 1.937 5.344 1.937 2.364 0 5.322-1.208 5.344-1.937.014-.487-2.847-.844-5.344-.844zm7.562 1.218c-.31.05-.925.843-2.5 1.625-1.514.752-3.047.696-3.28 1-.234.303.37 3.448.687 3.562.317.115 2.613-.84 4.093-2.03 1.606-1.293 2.71-2.865 2.688-3.22-.021-.354-1.377-.987-1.688-.937zm-14.843.062c-.27-.036-1.887.541-1.75 1 .457 1.534 2.934 3.407 3.25 3.47.315.062 1.886-1.98 1.78-2.376-.104-.395-.821-.428-1.687-.937-.99-.582-1.325-1.12-1.593-1.157zM4.642 36.76c1.01.002 2.198.576 2.75 1.156.884.928 1.377 2.165-.656 2.187-2.033.022-4.342-1.171-3.531-2.593.304-.534.832-.752 1.437-.75zm17.563 0c.605-.002 1.133.216 1.437.75.81 1.422-1.53 2.615-3.562 2.593-2.033-.022-1.51-1.259-.625-2.187.552-.58 1.74-1.154 2.75-1.156zm-8.782 1.156c1.143 0 2.813.309 2.813 1.281 0 .818-1.477 1.781-2.813 1.781s-2.843-.963-2.843-1.78c0-.973 1.701-1.282 2.843-1.282zm-8.468 3.312c1.009.002 2.197.577 2.75 1.157.884.928 1.376 2.165-.657 2.187-2.032.022-4.373-1.172-3.562-2.594.304-.533.863-.75 1.469-.75zm16.937 0c.606 0 1.134.217 1.438.75.81 1.422-1.53 2.616-3.563 2.594-2.033-.022-1.509-1.26-.625-2.187.553-.58 1.741-1.155 2.75-1.157zm-8.469 1.188c1.143 0 2.813.309 2.813 1.281 0 .818-1.477 1.781-2.813 1.781s-2.843-.963-2.843-1.78c0-.973 1.701-1.282 2.843-1.282zm-8.156 3.281c1.01.002 2.198.576 2.75 1.156.884.928 1.377 2.166-.656 2.188-2.033.022-4.373-1.172-3.563-2.594.304-.533.864-.751 1.47-.75zm16.313 0c.605-.001 1.133.217 1.437.75.81 1.422-1.53 2.616-3.562 2.594-2.033-.022-1.51-1.26-.625-2.188.552-.58 1.74-1.154 2.75-1.156zm-8.157 1.219c1.143 0 2.813.309 2.813 1.281 0 .818-1.477 1.781-2.813 1.781s-2.843-.963-2.843-1.78c0-.973 1.701-1.282 2.843-1.282zm-7.843 3.25c1.009.002 2.197.576 2.75 1.156.884.928 1.376 2.166-.657 2.188-2.032.022-4.373-1.172-3.562-2.594.304-.533.863-.751 1.469-.75zm15.687 0c.606-.001 1.134.217 1.438.75.81 1.422-1.53 2.616-3.563 2.594-2.033-.022-1.509-1.26-.625-2.188.553-.58 1.741-1.154 2.75-1.156zm-7.844 1.25c1.143 0 2.813.309 2.813 1.281 0 .818-1.477 1.781-2.813 1.781s-2.843-.963-2.843-1.78c0-.973 1.701-1.282 2.843-1.282z"/></svg>