<?xml version="1.0" encoding="UTF-8" standalone="no"?>
<svg
   xmlns="http://www.w3.org/2000/svg"
   viewBox="0 0 26.819476 53.229167"
   y="0px"
   x="0px"
   version="1.1"
   height="19.960938"
   width="8.3810863">
  <g
     id="g4"
     transform="translate(-18.514061,-993.44732)">
    <path
       id="path6"
       transform="translate(0,988.36218)"
       d="m 31.9375,-0.09375 c -6.629126,0 -9.93842,0.90717 -10.46875,1.4375 -0.53033,0.53033 -2.490197,2.85069 -2.84375,15.84375 -0.353554,12.9931 0.186199,30.8936 0.9375,37.125 0.751301,6.2313 1.053617,7.22505 1.9375,7.84375 0.883884,0.6187 3.454821,1.625 10.4375,1.625 6.982679,0 9.553616,-1.0063 10.4375,-1.625 0.883883,-0.6187 1.186199,-1.61245 1.9375,-7.84375 0.751301,-6.2314 1.259804,-24.1319 0.90625,-37.125 C 44.865197,4.19444 42.93658,1.87408 42.40625,1.34375 41.87592,0.81342 38.566626,-0.09375 31.9375,-0.09375 Z m 0,0.71875 c 6.982714,0 9.123239,0.78642 9.84375,1.65625 0.720511,0.86983 1.96875,5.96871 2.53125,18.78125 0.792697,18.0559 -8.965332,20.875 -12.375,20.875 -3.409668,0 -13.167697,-2.8191 -12.375,-20.875 C 20.125,8.24996 21.373239,3.15108 22.09375,2.28125 22.814261,1.41142 24.954786,0.625 31.9375,0.625 Z m 0,0.78125 c -5.999154,0 -8.162228,0.85354 -8.78125,1.59375 -0.619023,0.74021 -1.735482,4.7531 -2.03125,15.90625 -0.187703,7.0781 0.482923,11.32065 2.5625,13.96875 0.477444,0.6079 1.056962,1.1177 1.65625,1.5625 1.939359,-0.5707 4.194831,-0.90625 6.59375,-0.90625 2.410781,0 4.647889,0.33035 6.59375,0.90625 0.598018,-0.4443 1.14843,-0.9557 1.625,-1.5625 2.079577,-2.6481 2.750203,-6.89065 2.5625,-13.96875 C 42.422982,7.7531 41.306523,3.74021 40.6875,3 40.068478,2.25979 37.936654,1.40625 31.9375,1.40625 Z m 0,0.59375 c 0.341709,0 0.625,2.02945 0.625,4.53125 0,2.5018 -0.283291,4.53125 -0.625,4.53125 -0.341709,0 -0.625,-2.02945 -0.625,-4.53125 C 31.3125,4.02945 31.595791,2 31.9375,2 Z m 0,15.0625 c 2.564224,0 8.625,0.18755 9.125,0.59375 0.5,0.4063 0.25,11.9688 -0.25,12.5625 -0.5,0.5938 -5.912542,0.46875 -8.875,0.46875 -2.962458,0 -8.375,0.12505 -8.875,-0.46875 -0.5,-0.5937 -0.75,-12.1562 -0.25,-12.5625 0.5,-0.4062 6.560776,-0.59375 9.125,-0.59375 z M 31.875,33.78125 c -2.49697,0 -5.35849,0.35735 -5.34375,0.84375 0.0221,0.7292 2.979361,1.9375 5.34375,1.9375 2.364389,0 5.32165,-1.2083 5.34375,-1.9375 0.01474,-0.4865 -2.84678,-0.84375 -5.34375,-0.84375 z M 39.4375,35 c -0.31017,0.0496 -0.925812,0.8436 -2.5,1.625 -1.514856,0.7519 -3.047786,0.6964 -3.28125,1 -0.233464,0.3036 0.370549,3.4479 0.6875,3.5625 0.31695,0.1146 2.613199,-0.84025 4.09375,-2.03125 1.605882,-1.2919 2.70863,-2.86455 2.6875,-3.21875 C 41.10387,35.5833 39.74767,34.95 39.4375,35 Z m -14.84375,0.0625 c -0.268763,-0.0364 -1.88703,0.5409 -1.75,1 0.457702,1.5334 2.934193,3.40675 3.25,3.46875 0.315809,0.0624 1.886519,-1.98 1.78125,-2.375 -0.105269,-0.395 -0.821949,-0.4283 -1.6875,-0.9375 -0.989531,-0.5821 -1.324986,-1.12025 -1.59375,-1.15625 z m -1.4375,6.78125 c 1.009172,0.0021 2.197572,0.57625 2.75,1.15625 0.883883,0.9281 1.376681,2.1654 -0.65625,2.1875 -2.032932,0.022 -4.341762,-1.17165 -3.53125,-2.59375 0.303942,-0.533288 0.831997,-0.751269 1.4375,-0.75 z m 17.5625,0 c 0.605504,-0.0013 1.133558,0.216712 1.4375,0.75 0.810512,1.4221 -1.529568,2.61575 -3.5625,2.59375 -2.032932,-0.0221 -1.508884,-1.2594 -0.625,-2.1875 0.552427,-0.58 1.740827,-1.154136 2.75,-1.15625 z M 31.9375,43 c 1.14209,0 2.8125,0.30895 2.8125,1.28125 0,0.8176 -1.476469,1.78125 -2.8125,1.78125 -1.33603,0 -2.84375,-0.96365 -2.84375,-1.78125 C 29.09375,43.30895 30.795411,43 31.9375,43 Z m -8.46875,3.3125 c 1.009173,0.0021 2.197573,0.576187 2.75,1.15625 0.883884,0.928 1.376682,2.1654 -0.65625,2.1875 -2.032931,0.022 -4.373012,-1.17165 -3.5625,-2.59375 0.303942,-0.533288 0.863246,-0.751274 1.46875,-0.75 z m 16.9375,0 c 0.605504,-0.0013 1.133558,0.216712 1.4375,0.75 0.810512,1.4221 -1.529568,2.61575 -3.5625,2.59375 -2.032932,-0.0221 -1.508884,-1.2595 -0.625,-2.1875 0.552427,-0.580063 1.740827,-1.154127 2.75,-1.15625 z M 31.9375,47.5 c 1.14209,0 2.8125,0.30895 2.8125,1.28125 0,0.8176 -1.476469,1.78125 -2.8125,1.78125 -1.33603,0 -2.84375,-0.96365 -2.84375,-1.78125 0,-0.9723 1.701661,-1.28125 2.84375,-1.28125 z m -8.15625,3.28125 c 1.009173,0.0021 2.197573,0.576187 2.75,1.15625 0.883884,0.928 1.376682,2.1654 -0.65625,2.1875 -2.032931,0.022 -4.373012,-1.17165 -3.5625,-2.59375 0.303942,-0.533288 0.863246,-0.751274 1.46875,-0.75 z m 16.3125,0 c 0.605504,-0.0013 1.133558,0.216712 1.4375,0.75 0.810512,1.4221 -1.529568,2.61575 -3.5625,2.59375 -2.032932,-0.0221 -1.508884,-1.2595 -0.625,-2.1875 0.552427,-0.580063 1.740827,-1.154127 2.75,-1.15625 z M 31.9375,52 c 1.14209,0 2.8125,0.30895 2.8125,1.28125 0,0.8176 -1.476469,1.78125 -2.8125,1.78125 -1.33603,0 -2.84375,-0.96365 -2.84375,-1.78125 C 29.09375,52.30895 30.795411,52 31.9375,52 Z m -7.84375,3.25 c 1.009173,0.0021 2.197573,0.576187 2.75,1.15625 0.883883,0.928 1.376681,2.1654 -0.65625,2.1875 C 24.154568,58.61575 21.814489,57.4221 22.625,56 c 0.303942,-0.533288 0.863246,-0.751274 1.46875,-0.75 z m 15.6875,0 c 0.605504,-0.0013 1.133558,0.216712 1.4375,0.75 0.810512,1.4221 -1.529568,2.61575 -3.5625,2.59375 -2.032932,-0.0221 -1.508884,-1.2595 -0.625,-2.1875 0.552427,-0.580063 1.740827,-1.154127 2.75,-1.15625 z M 31.9375,56.5 c 1.14209,0 2.8125,0.30895 2.8125,1.28125 0,0.8176 -1.476469,1.78125 -2.8125,1.78125 -1.33603,0 -2.84375,-0.96365 -2.84375,-1.78125 0,-0.9723 1.701661,-1.28125 2.84375,-1.28125 z"
       />
  </g>
</svg>
